<?xml version="1.0" standalone="no"?>
<!DOCTYPE svg PUBLIC "-//W3C//DTD SVG 20010904//EN"
 "http://www.w3.org/TR/2001/REC-SVG-20010904/DTD/svg10.dtd">
<svg version="1.0" xmlns="http://www.w3.org/2000/svg"
 width="1281.000000pt" height="1281.000000pt" viewBox="0 0 1281.000000 1281.000000"
 preserveAspectRatio="xMidYMid meet">
<metadata>
Created by potrace 1.14, written by Peter Selinger 2001-2017
</metadata>
<g transform="translate(0.000000,1281.000000) scale(0.100000,-0.100000)"
fill="#000000" stroke="none">
<path d="M4520 10178 c-118 -4 -233 -9 -255 -12 -22 -3 -85 -8 -140 -11 -55
-3 -127 -11 -160 -17 -33 -6 -69 -12 -80 -12 -11 -1 -36 -7 -55 -13 -19 -6
-96 -30 -170 -53 -74 -23 -143 -49 -152 -57 -9 -8 -21 -12 -26 -9 -5 3 -40
-17 -77 -45 -37 -27 -80 -53 -96 -56 -27 -5 -90 -66 -132 -127 -19 -28 -56
-48 -93 -51 -31 -3 -42 -12 -63 -54 -24 -47 -45 -64 -79 -66 -15 -1 -83 -15
-152 -30 -69 -15 -136 -28 -150 -29 -14 -1 -41 -9 -60 -17 -55 -25 -172 -59
-182 -53 -4 3 -20 -3 -36 -13 -34 -24 -99 -46 -111 -39 -5 3 -19 -2 -32 -12
-36 -28 -101 -59 -139 -67 -19 -4 -40 -12 -47 -17 -7 -5 -17 -7 -22 -3 -6 3
-18 -3 -28 -15 -10 -11 -27 -20 -40 -20 -12 0 -25 -5 -28 -11 -15 -23 -130
-99 -183 -120 -32 -12 -77 -38 -101 -58 -54 -45 -87 -67 -129 -86 -18 -9 -35
-22 -39 -31 -7 -19 -75 -54 -106 -54 -14 0 -30 -7 -37 -15 -7 -9 -21 -13 -35
-9 -16 4 -26 -1 -37 -18 -9 -13 -40 -35 -71 -51 -31 -16 -57 -36 -60 -47 -3
-14 -14 -20 -32 -20 -19 0 -41 -14 -73 -45 -25 -25 -49 -45 -54 -45 -4 0 -35
-25 -68 -55 -33 -30 -63 -55 -68 -55 -17 0 -172 -148 -172 -165 0 -8 -15 -24
-32 -36 -18 -13 -36 -27 -39 -32 -10 -14 -60 -37 -69 -32 -21 13 -47 -16 -54
-59 -1 -8 -15 -17 -55 -36 -14 -6 -23 -18 -36 -50 -11 -27 -32 -60 -52 -83
-11 -12 -24 -40 -28 -62 -4 -22 -10 -44 -14 -50 -18 -23 -18 -52 0 -64 21 -12
25 -51 9 -67 -6 -6 -12 -21 -15 -34 -2 -12 -14 -29 -25 -37 -22 -15 -40 -52
-44 -89 -2 -12 -15 -37 -29 -56 -15 -19 -24 -37 -21 -41 3 -3 1 -29 -5 -59 -6
-29 -13 -62 -15 -73 -3 -11 -14 -38 -24 -60 -16 -32 -19 -50 -13 -85 11 -68 4
-325 -9 -325 0 0 -3 -27 -5 -60 -3 -51 0 -66 23 -105 21 -36 27 -59 28 -115 2
-90 13 -245 20 -267 3 -9 7 -32 9 -50 5 -42 12 -76 19 -87 8 -12 19 -99 20
-151 1 -25 -8 -62 -18 -84 -28 -59 -38 -165 -31 -326 10 -207 16 -267 29 -288
7 -11 16 -58 20 -102 9 -88 19 -131 52 -217 39 -106 69 -166 90 -184 8 -6 14
-17 14 -23 0 -6 25 -39 55 -73 30 -33 55 -67 55 -75 0 -7 53 -65 117 -129 65
-64 129 -130 141 -148 36 -47 93 -73 163 -71 15 0 44 -14 70 -35 24 -19 49
-35 55 -35 6 0 28 -13 49 -30 21 -17 44 -30 51 -30 8 0 33 -8 57 -19 23 -10
62 -24 86 -31 44 -12 114 -50 126 -69 3 -6 25 -20 48 -31 23 -11 53 -27 67
-34 14 -8 42 -22 62 -31 20 -8 40 -20 43 -24 3 -5 19 -13 37 -16 17 -4 45 -16
62 -26 17 -10 39 -19 48 -19 32 0 123 -50 169 -93 65 -61 99 -86 144 -108 22
-10 53 -30 69 -44 16 -14 33 -25 38 -25 5 0 33 -15 61 -34 29 -18 65 -36 80
-40 15 -4 49 -22 75 -40 57 -41 142 -86 160 -86 24 0 75 -33 121 -78 44 -43
101 -87 101 -78 0 2 37 -13 83 -34 66 -30 177 -70 190 -69 11 2 69 -17 99 -32
21 -11 51 -19 68 -19 19 0 30 -5 30 -14 0 -17 70 -66 137 -96 26 -11 62 -35
79 -51 62 -60 182 -133 235 -142 13 -3 42 -12 64 -20 22 -9 54 -18 71 -20 17
-3 53 -15 80 -27 27 -12 72 -29 99 -37 28 -8 55 -19 60 -23 6 -4 24 -10 40
-12 17 -3 37 -8 46 -12 10 -5 34 7 70 34 29 22 61 40 71 40 30 0 30 -20 -1
-38 -17 -9 -33 -22 -35 -28 -5 -12 70 -31 149 -38 22 -2 63 -12 90 -23 33 -13
67 -18 100 -16 28 2 55 3 60 3 126 -4 1509 -3 1555 1 36 3 90 2 120 -2 39 -6
60 -5 75 4 24 16 104 45 125 46 44 2 88 16 115 36 33 24 89 33 265 41 58 3
119 9 135 15 59 18 350 8 412 -15 69 -24 117 -29 325 -30 187 -1 198 -2 227
-24 31 -23 30 -23 311 -37 36 -2 108 -6 160 -10 52 -3 133 -7 180 -8 57 -2 96
-9 117 -20 18 -9 40 -18 50 -20 10 -2 36 -9 58 -15 47 -13 117 -10 198 7 32 7
64 10 71 8 8 -3 17 -2 22 3 18 16 197 71 249 75 30 3 66 10 82 16 15 6 55 12
88 14 47 2 77 11 130 39 71 37 98 45 170 51 22 2 51 6 65 9 14 3 36 8 49 11
14 2 28 10 32 17 4 6 25 13 47 14 21 1 50 9 63 17 13 9 43 16 67 15 24 0 49 5
55 11 6 6 30 11 53 11 25 0 47 6 54 15 7 8 23 15 37 15 13 0 32 4 41 9 9 5 31
11 47 14 17 3 62 12 100 21 84 19 196 16 245 -7 49 -23 79 -26 122 -11 20 7
51 15 69 18 18 2 46 15 62 26 16 12 43 24 60 27 18 2 48 15 67 27 71 46 87 54
131 67 44 13 72 32 151 102 23 20 47 37 54 37 6 0 65 52 130 115 65 63 124
115 132 115 7 0 15 13 18 29 3 16 32 56 65 91 33 35 77 95 99 134 21 39 68
105 104 146 62 71 116 157 116 184 0 7 25 63 56 125 40 81 62 115 80 121 18 7
24 17 24 39 0 16 11 42 24 58 13 15 25 37 27 48 3 13 15 22 34 25 31 5 45 34
27 52 -10 10 -5 36 19 118 5 19 11 46 13 60 3 29 32 96 45 104 18 11 43 113
50 205 5 56 15 109 24 128 9 18 17 52 17 76 0 25 7 60 15 79 8 19 17 77 21
127 6 85 9 93 31 102 30 11 36 29 23 64 -8 21 -7 33 3 49 9 13 13 46 12 90 -1
41 6 104 17 150 19 81 23 195 12 406 -2 47 -6 132 -8 190 -11 221 -15 282 -25
313 -5 18 -15 70 -21 117 -6 47 -13 96 -15 109 -4 28 -63 175 -87 215 -25 44
-150 176 -180 192 -18 9 -25 19 -21 30 7 18 -43 74 -67 74 -18 0 -54 35 -63
63 -4 9 -12 17 -19 17 -8 0 -36 20 -63 45 -27 25 -69 57 -94 72 -25 14 -65 42
-87 62 -65 57 -170 132 -218 156 -25 12 -59 33 -76 45 -41 29 -140 80 -156 80
-7 0 -35 16 -64 35 -29 19 -55 35 -60 35 -15 0 -115 44 -125 55 -5 6 -30 19
-55 29 -25 9 -61 28 -80 40 -19 13 -53 29 -74 36 -22 7 -54 21 -72 32 -17 10
-42 21 -54 23 -12 2 -27 9 -34 14 -6 5 -36 19 -65 31 -30 12 -78 32 -106 46
-29 13 -57 24 -63 24 -5 0 -27 9 -49 19 -60 30 -132 61 -141 61 -5 0 -17 9
-26 19 -11 12 -31 19 -52 19 -20 0 -64 14 -98 31 -35 17 -68 31 -73 31 -5 0
-33 11 -62 25 -29 14 -66 28 -82 32 -16 3 -32 10 -35 14 -3 5 -13 9 -23 9 -10
0 -29 9 -43 19 -33 27 -221 121 -240 121 -9 0 -20 6 -26 13 -10 12 -55 34
-182 90 -59 26 -90 41 -189 92 -15 8 -53 21 -83 29 -45 11 -207 76 -267 106
-28 13 -65 28 -86 33 -11 3 -45 14 -75 25 -46 17 -59 27 -79 63 -104 192 -188
300 -312 400 -90 73 -251 155 -344 175 -223 50 -422 51 -625 3 -96 -22 -224
-66 -256 -86 -18 -12 -27 -12 -55 1 -57 24 -300 76 -429 91 -30 4 -77 13 -105
20 -27 7 -77 16 -110 19 -73 8 -100 12 -190 26 -38 7 -97 15 -130 20 -33 4
-75 13 -93 20 -18 7 -39 9 -48 6 -8 -3 -34 -1 -57 4 -23 5 -73 14 -112 21 -38
6 -83 13 -100 16 -16 3 -140 5 -274 4 -134 0 -248 2 -253 5 -6 4 -56 8 -111 9
-160 5 -279 15 -311 28 -35 13 -112 14 -396 5z m3490 -469 c51 -9 86 -20 135
-39 93 -37 127 -52 165 -75 39 -22 41 -25 15 -19 -16 3 -73 22 -125 41 -52 20
-120 41 -150 49 -96 23 -184 46 -205 55 -26 10 92 2 165 -12z"/>
<path d="M12543 4593 c-15 -5 -18 -33 -4 -33 20 0 41 13 41 24 0 13 -15 16
-37 9z"/>
<path d="M146 3483 c-6 -14 -5 -15 5 -6 7 7 10 15 7 18 -3 3 -9 -2 -12 -12z"/>
<path d="M970 3116 c0 -2 8 -10 18 -17 15 -13 16 -12 3 4 -13 16 -21 21 -21
13z"/>
</g>
</svg>
